<svg width="14" height="14" viewBox="0 0 14 14" fill="none" xmlns="http://www.w3.org/2000/svg">
<path d="M9.54929 0.333334H4.45596C2.18396 0.333334 0.338623 2.17867 0.338623 4.45067V9.544C0.338623 11.816 2.18396 13.6613 4.45596 13.6613H9.54929C11.8213 13.6613 13.6666 11.816 13.6666 9.544V4.45067C13.6666 2.17867 11.8213 0.333334 9.54929 0.333334ZM12.1786 9.54933C12.1786 11 11 12.184 9.54396 12.184H4.45062C2.99996 12.184 1.81596 11.0053 1.81596 9.54933V4.456C1.81596 3.00533 2.99462 1.82133 4.45062 1.82133H9.54396C10.9946 1.82133 12.1786 3 12.1786 4.456V9.54933Z" fill="white"/>
<path d="M6.99992 3.592C5.12259 3.592 3.59192 5.12267 3.59192 7C3.59192 8.87733 5.12259 10.408 6.99992 10.408C8.87725 10.408 10.4079 8.87733 10.4079 7C10.4079 5.12267 8.87725 3.592 6.99992 3.592ZM6.99992 9.06933C5.85859 9.06933 4.93059 8.14133 4.93059 7C4.93059 5.85867 5.85859 4.93067 6.99992 4.93067C8.14125 4.93067 9.06925 5.85867 9.06925 7C9.06925 8.14133 8.14125 9.06933 6.99992 9.06933Z" fill="white"/>
<path d="M10.6675 3.96562C10.9815 3.91472 11.1948 3.61893 11.1439 3.30495C11.093 2.99097 10.7972 2.7777 10.4832 2.8286C10.1692 2.8795 9.95593 3.17529 10.0068 3.48927C10.0577 3.80325 10.3535 4.01652 10.6675 3.96562Z" fill="white"/>
</svg>
