<svg width="16" height="16" viewBox="0 0 16 16" fill="none" xmlns="http://www.w3.org/2000/svg">
<path d="M14.9314 4.10682V4.08909C14.7705 3.43727 14.3505 2.76364 13.7996 2.19636C13.1559 1.53091 12.3364 1.00864 11.5537 0.839545H11.5373C9.20308 0.392276 6.80516 0.392276 4.47093 0.839545H4.45457C3.00093 1.15454 1.42321 2.67364 1.07139 4.08909V4.10682C0.639127 6.0692 0.639127 8.10216 1.07139 10.0645V10.0809C1.3223 11.09 2.19502 12.1509 3.20139 12.7918C3.53005 13.006 3.8878 13.1718 4.26366 13.2841V14.8632C4.26419 14.9894 4.30228 15.1126 4.37308 15.217C4.44388 15.3215 4.54419 15.4025 4.6612 15.4498C4.77822 15.497 4.90666 15.5083 5.03014 15.4823C5.15363 15.4563 5.26657 15.3941 5.35457 15.3036L6.95548 13.64C7.30184 13.6591 7.65093 13.67 7.9973 13.67C9.18296 13.6696 10.3659 13.5573 11.5305 13.3345H11.5468C12.9964 13.0182 14.5755 11.4991 14.9246 10.0836V10.0673C15.3595 8.1045 15.3618 6.07058 14.9314 4.10682ZM13.6646 9.77273C13.43 10.6959 12.2328 11.8455 11.2796 12.0568C10.0415 12.294 8.78151 12.3969 7.52139 12.3636C7.50912 12.3629 7.49684 12.3649 7.48549 12.3697C7.47415 12.3744 7.46404 12.3817 7.45593 12.3909L6.2873 13.5909L5.04366 14.8659C5.02377 14.8869 4.99802 14.9015 4.96975 14.9077C4.94148 14.914 4.91199 14.9116 4.8851 14.9008C4.85822 14.8901 4.83517 14.8716 4.81895 14.8476C4.80272 14.8236 4.79407 14.7953 4.79412 14.7664V12.1482C4.79415 12.1271 4.7868 12.1067 4.77334 12.0905C4.75989 12.0743 4.74118 12.0634 4.72048 12.0595C4.52167 12.0123 4.32999 11.939 4.15048 11.8414C3.34048 11.4091 2.52366 10.5227 2.33548 9.77273C1.9457 7.99889 1.9457 6.16157 2.33548 4.38773C2.56866 3.46864 3.77275 2.32182 4.71912 2.10909C6.88628 1.69443 9.11241 1.69443 11.2796 2.10909C11.8046 2.22636 12.4046 2.62591 12.8737 3.11682C13.2596 3.51636 13.5555 3.97727 13.6646 4.39182C14.0538 6.16434 14.0538 8.0002 13.6646 9.77273Z" fill="white"/>
<path d="M11.3137 9.90909C11.1366 10.3134 10.832 10.6486 10.4464 10.8636C10.3255 10.915 10.1999 10.9547 10.0714 10.9823C9.92553 10.9386 9.78644 10.9086 9.66235 10.8555C8.62866 10.4532 7.66637 9.88735 6.81235 9.17954C6.55867 8.96321 6.32036 8.72946 6.09917 8.48C5.55295 7.85097 5.09425 7.151 4.73553 6.39909C4.56099 6.04318 4.41372 5.675 4.26372 5.30818C4.12735 4.97409 4.32917 4.62636 4.53644 4.37682C4.73933 4.14539 4.98889 3.9595 5.26872 3.83136C5.36718 3.78188 5.47987 3.76842 5.58722 3.79333C5.69458 3.81823 5.78982 3.87994 5.85644 3.96773C6.20485 4.35917 6.51193 4.78552 6.77281 5.24C6.85499 5.37215 6.88313 5.53087 6.85139 5.68322C6.81965 5.83556 6.73047 5.96984 6.60235 6.05818C6.53417 6.10591 6.46599 6.16045 6.40735 6.21364C6.34955 6.25644 6.2997 6.30906 6.26008 6.36909C6.22589 6.42527 6.20515 6.4886 6.19947 6.55412C6.19379 6.61964 6.20334 6.68559 6.22735 6.74682C6.49053 7.47091 6.89008 8.075 7.48735 8.49909C7.68948 8.64201 7.90725 8.76142 8.13644 8.855C8.28611 8.93639 8.45428 8.97773 8.62462 8.975C8.9219 8.93955 9.02008 8.61091 9.22735 8.44182C9.32249 8.36392 9.44023 8.31879 9.56306 8.31314C9.6859 8.30749 9.80728 8.34162 9.90917 8.41045C10.1301 8.54682 10.3428 8.70091 10.5555 8.85091C10.7659 8.99451 10.9685 9.14927 11.1624 9.31454C11.253 9.3804 11.3178 9.47589 11.3454 9.58448C11.3731 9.69307 11.3618 9.8079 11.3137 9.90909Z" fill="white"/>
<path d="M8.39134 3.37455H8.2168C8.27271 3.37182 8.33134 3.37455 8.39134 3.37455Z" fill="white"/>
<path d="M11.4092 7.46136C11.2728 7.46136 11.206 7.34545 11.1964 7.21864C11.1787 6.96909 11.1651 6.71818 11.131 6.47C11.072 6.05127 10.9262 5.64948 10.7028 5.29045C10.4732 4.91643 10.1676 4.59476 9.80589 4.34624C9.44416 4.09772 9.03429 3.92789 8.60279 3.84773C8.40643 3.81227 8.20598 3.80409 8.00825 3.78364C7.88279 3.77 7.7178 3.76182 7.69052 3.60636C7.68645 3.57617 7.68886 3.54546 7.69761 3.51627C7.70635 3.48709 7.72123 3.46011 7.74123 3.43713C7.76124 3.41415 7.78592 3.39571 7.81362 3.38304C7.84133 3.37037 7.87142 3.36375 7.90189 3.36364C7.93459 3.36175 7.96737 3.36175 8.00007 3.36364C8.59612 3.36868 9.18173 3.52065 9.70502 3.80608C10.2283 4.09151 10.6731 4.50159 11.0001 5C11.2582 5.40173 11.4334 5.85098 11.5155 6.32136C11.5673 6.61591 11.5864 6.91864 11.6096 7.21864C11.6143 7.24804 11.6126 7.27809 11.6048 7.30681C11.5969 7.33553 11.5831 7.36225 11.5641 7.3852C11.5452 7.40815 11.5215 7.42681 11.4948 7.43994C11.4681 7.45307 11.4389 7.46038 11.4092 7.46136Z" fill="white"/>
<path d="M10.6714 6.82454C10.6706 6.86505 10.6651 6.90532 10.655 6.94455C10.6431 6.98397 10.6193 7.01877 10.587 7.04421C10.5546 7.06965 10.5151 7.0845 10.474 7.08673C10.4329 7.08897 10.3921 7.07848 10.3571 7.0567C10.3222 7.03492 10.2948 7.0029 10.2787 6.965C10.2636 6.90993 10.2568 6.85297 10.2582 6.79591C10.2614 6.4909 10.201 6.18858 10.0809 5.90818C10.0537 5.84818 10.0237 5.78682 9.98957 5.72818C9.79438 5.39174 9.50466 5.12004 9.15639 4.94682C8.94628 4.84761 8.72314 4.77874 8.49366 4.74227C8.39275 4.72591 8.29184 4.71636 8.19093 4.70273C8.16467 4.70141 8.13895 4.69472 8.11538 4.68306C8.0918 4.67141 8.07087 4.65504 8.05387 4.63498C8.03687 4.61491 8.02417 4.59157 8.01655 4.5664C8.00893 4.54123 8.00655 4.51476 8.00957 4.48864C8.00959 4.46191 8.01525 4.43549 8.0262 4.41111C8.03714 4.38673 8.05312 4.36494 8.07308 4.34717C8.09304 4.3294 8.11653 4.31605 8.14201 4.308C8.16749 4.29995 8.19439 4.29738 8.22093 4.30045C8.62134 4.31591 9.01359 4.41827 9.37048 4.60045C9.80629 4.81976 10.1618 5.17098 10.3864 5.60409C10.5129 5.85698 10.5976 6.12868 10.6373 6.40864C10.6447 6.44515 10.6501 6.48202 10.6537 6.51909C10.6605 6.60091 10.6632 6.68273 10.67 6.78364C10.67 6.79318 10.6714 6.80545 10.6714 6.82454Z" fill="white"/>
<path d="M9.7373 6.63636C9.72959 6.67093 9.7117 6.7024 9.68593 6.7267C9.66017 6.75101 9.62772 6.76704 9.59276 6.77273H9.56276C9.51808 6.77562 9.47368 6.76387 9.43628 6.73927C9.39888 6.71466 9.37051 6.67854 9.35549 6.63636C9.347 6.614 9.3415 6.59062 9.33912 6.56682C9.33195 6.47506 9.31828 6.38392 9.29821 6.29409C9.25768 6.11224 9.15435 5.9505 9.00639 5.83727C8.93487 5.78591 8.85508 5.74717 8.77048 5.72273C8.66276 5.69136 8.54958 5.69955 8.44321 5.67364C8.39064 5.66432 8.3439 5.63455 8.31323 5.59084C8.28256 5.54714 8.27046 5.49306 8.27958 5.44045C8.28973 5.39006 8.31789 5.34509 8.35881 5.31397C8.39972 5.28285 8.45057 5.2677 8.50185 5.27136C9.12639 5.31636 9.59276 5.61636 9.71276 6.28591C9.7251 6.34807 9.73375 6.41091 9.73867 6.47409C9.74631 6.52795 9.74585 6.58264 9.7373 6.63636Z" fill="white"/>
</svg>
