<svg width="14" height="10" viewBox="0 0 14 10" fill="none" xmlns="http://www.w3.org/2000/svg">
<path d="M7.61711 9.27714C2.92854 9.27714 0.254251 6.06286 0.142822 0.714287H2.49139C2.56854 4.64 4.29996 6.30286 5.67139 6.64572V0.714287H7.88282V4.1C9.23711 3.95429 10.66 2.41143 11.14 0.714287H13.3514C13.1705 1.59447 12.81 2.42787 12.2923 3.16235C11.7746 3.89683 11.111 4.51658 10.3428 4.98286C11.2002 5.40891 11.9576 6.01194 12.5648 6.75217C13.1721 7.4924 13.6154 8.35298 13.8657 9.27714H11.4314C11.2068 8.47444 10.7502 7.7559 10.119 7.21155C9.4877 6.66721 8.70983 6.32129 7.88282 6.21714V9.27714H7.61711Z" fill="white"/>
</svg>
