<svg width="16" height="16" viewBox="0 0 16 16" fill="none" xmlns="http://www.w3.org/2000/svg">
<path d="M13.2909 2.70909C12.0424 1.44813 10.3844 0.674831 8.61597 0.528667C6.84752 0.382503 5.08506 0.8731 3.64647 1.91197C2.20789 2.95083 1.1879 4.46958 0.770475 6.19426C0.353052 7.91894 0.56568 9.73601 1.37001 11.3177L0.58046 15.1509C0.572268 15.1891 0.572036 15.2285 0.579779 15.2667C0.587522 15.305 0.603073 15.3412 0.62546 15.3732C0.658255 15.4217 0.705069 15.459 0.759648 15.4802C0.814228 15.5014 0.873977 15.5055 0.930914 15.4918L4.68773 14.6014C6.265 15.3853 8.06925 15.5843 9.77944 15.1628C11.4896 14.7414 12.9948 13.7268 14.0272 12.2998C15.0596 10.8727 15.5522 9.12563 15.4174 7.36944C15.2826 5.61325 14.529 3.96186 13.2909 2.70909ZM12.1196 12.0582C11.2557 12.9196 10.1434 13.4882 8.93923 13.6839C7.7351 13.8796 6.49991 13.6926 5.40773 13.1491L4.8841 12.89L2.58091 13.4355L2.58773 13.4068L3.06501 11.0886L2.80864 10.5827C2.25059 9.48673 2.05373 8.24224 2.24626 7.02751C2.43879 5.81279 3.01084 4.69016 3.88046 3.82045C4.97315 2.7281 6.45495 2.11446 8.00001 2.11446C9.54506 2.11446 11.0269 2.7281 12.1196 3.82045C12.1289 3.83113 12.1389 3.84115 12.1496 3.85045C13.2287 4.94562 13.8311 6.423 13.8255 7.9605C13.8199 9.498 13.2067 10.9709 12.1196 12.0582Z" fill="white"/>
<path d="M11.915 10.3577C11.6328 10.8023 11.1869 11.3464 10.6264 11.4814C9.64458 11.7186 8.13776 11.4895 6.26276 9.74136L6.23958 9.72091C4.59094 8.19227 4.16276 6.92 4.26639 5.91091C4.32367 5.33818 4.80094 4.82 5.20321 4.48182C5.26681 4.42754 5.34223 4.38889 5.42343 4.36897C5.50464 4.34905 5.58938 4.34841 5.67088 4.36709C5.75237 4.38578 5.82837 4.42327 5.89278 4.47658C5.9572 4.52989 6.00825 4.59753 6.04185 4.67409L6.64867 6.03773C6.6881 6.12614 6.70271 6.22363 6.69094 6.31972C6.67917 6.41582 6.64146 6.5069 6.58185 6.58318L6.27503 6.98136C6.2092 7.06358 6.16947 7.16362 6.16097 7.2686C6.15246 7.37358 6.17556 7.47871 6.2273 7.57045C6.39912 7.87182 6.81094 8.315 7.26776 8.72545C7.78049 9.18909 8.34912 9.61318 8.70912 9.75773C8.80545 9.79708 8.91136 9.80668 9.0132 9.7853C9.11503 9.76391 9.20813 9.71251 9.28049 9.63773L9.6364 9.27909C9.70507 9.21137 9.79047 9.16307 9.8839 9.13912C9.97732 9.11516 10.0754 9.11641 10.1682 9.14273L11.6096 9.55182C11.6891 9.57621 11.762 9.61846 11.8226 9.67533C11.8833 9.73221 11.9302 9.8022 11.9597 9.87997C11.9891 9.95774 12.0004 10.0412 11.9927 10.124C11.985 10.2068 11.9584 10.2868 11.915 10.3577Z" fill="white"/>
</svg>
