<svg width="64" height="64" viewBox="0 0 64 64" fill="none" xmlns="http://www.w3.org/2000/svg">
<rect x="2" y="2" width="60" height="60" rx="30" fill="#1F7911" stroke="#358628" stroke-width="4"/>
<path d="M25 24C25 22.8954 25.8954 22 27 22C28.1046 22 29 22.8954 29 24V40C29 41.1046 28.1046 42 27 42C25.8954 42 25 41.1046 25 40V24Z" fill="white"/>
<path d="M35 24C35 22.8954 35.8954 22 37 22C38.1046 22 39 22.8954 39 24V40C39 41.1046 38.1046 42 37 42C35.8954 42 35 41.1046 35 40V24Z" fill="white"/>
</svg>
