<svg width="188" height="18" viewBox="0 0 188 18" fill="none" xmlns="http://www.w3.org/2000/svg">
<path opacity="0.6" d="M7.64881 0H0V17.9992H7.64881V0Z" fill="#1F7911"/>
<path opacity="0.6" d="M106.531 0H98.8818V17.9992H106.531V0Z" fill="#1F7911"/>
<path opacity="0.6" d="M7.64881 0H0V12.9499H7.64881C9.35435 12.9368 10.9856 12.2488 12.187 11.036C13.3884 9.82309 14.0626 8.18364 14.0626 6.47493C14.0626 4.76622 13.3884 3.12677 12.187 1.91391C10.9856 0.701044 9.35435 0.0130951 7.64881 0V0Z" fill="#1F7911"/>
<path opacity="0.6" d="M32.9679 17.9992H20.832V0L32.9679 17.9992Z" fill="#1F7911"/>
<path opacity="0.6" d="M26.5046 0.00019017H20.832V12.95H26.5046C27.3575 12.9566 28.2033 12.794 28.9931 12.4715C29.783 12.149 30.5014 11.6731 31.1068 11.0712C31.7122 10.4693 32.1927 9.75332 32.5207 8.9645C32.8486 8.17567 33.0174 7.32962 33.0174 6.47512C33.0174 5.62062 32.8486 4.77457 32.5207 3.98574C32.1927 3.19691 31.7122 2.48091 31.1068 1.87901C30.5014 1.2771 29.783 0.801205 28.9931 0.478745C28.2033 0.156285 27.3575 -0.0063585 26.5046 0.00019017Z" fill="#1F7911"/>
<path opacity="0.6" d="M81.8167 0L72.4065 17.9992H81.8167H91.2273L81.8167 0Z" fill="#1F7911"/>
<path opacity="0.6" d="M72.1396 0L62.7294 17.9992H72.1396H81.5498L72.1396 0Z" fill="#1F7911"/>
<path opacity="0.6" d="M49.0961 17.9992C54.0573 17.9992 58.0792 13.9699 58.0792 8.9996C58.0792 4.02926 54.0573 0 49.0961 0C44.1348 0 40.1129 4.02926 40.1129 8.9996C40.1129 13.9699 44.1348 17.9992 49.0961 17.9992Z" fill="#1F7911"/>
<path opacity="0.6" d="M178.59 0L169.18 17.9992H178.59H188L178.59 0Z" fill="#1F7911"/>
<path opacity="0.6" d="M168.913 0L159.502 17.9992H168.913H178.323L168.913 0Z" fill="#1F7911"/>
<path opacity="0.6" d="M146.187 17.9992C151.148 17.9992 155.17 13.9699 155.17 8.9996C155.17 4.02926 151.148 0 146.187 0C141.225 0 137.203 4.02926 137.203 8.9996C137.203 13.9699 141.225 17.9992 146.187 17.9992Z" fill="#1F7911"/>
<path opacity="0.6" d="M129.175 2.97724C127.959 1.62476 126.363 0.673348 124.596 0.248555C122.829 -0.176238 120.976 -0.0544448 119.28 0.597861C117.584 1.25017 116.125 2.40233 115.096 3.9023C114.067 5.40227 113.516 7.17955 113.516 8.99961C113.516 10.8197 114.067 12.5969 115.096 14.0969C116.125 15.5969 117.584 16.749 119.28 17.4013C120.976 18.0537 122.829 18.1754 124.596 17.7507C126.363 17.3259 127.959 16.3745 129.175 15.022L125.691 8.9998L129.175 2.97724Z" fill="#1F7911"/>
<path opacity="0.6" d="M129.175 2.97737C128.116 1.79945 126.766 0.922567 125.26 0.435456C123.755 -0.0516538 122.148 -0.131703 120.601 0.203409L125.69 8.99955L129.175 2.97737Z" fill="#1F7911"/>
<path opacity="0.6" d="M120.602 17.7959C122.148 18.131 123.755 18.051 125.261 17.5638C126.766 17.0767 128.117 16.1999 129.175 15.0219L125.691 8.99976L120.602 17.7959Z" fill="#1F7911"/>
<path opacity="0.6" d="M42.7444 15.3645C44.4292 17.0522 46.7142 18.0003 49.0968 18.0001C51.4793 18 53.7642 17.0517 55.4489 15.3637C57.1335 13.6758 58.0798 11.3866 58.0797 8.99971C58.0795 6.61279 57.1329 4.32369 55.4481 2.63599L42.7444 15.3645Z" fill="#1F7911"/>
<path opacity="0.6" d="M139.835 15.3634C141.52 17.0511 143.805 17.9993 146.187 17.9993C148.569 17.9993 150.854 17.0511 152.539 15.3634C154.224 13.6756 155.17 11.3865 155.17 8.99967C155.17 6.61283 154.224 4.32374 152.539 2.63599L139.835 15.3634Z" fill="#1F7911"/>
</svg>
